# xmcd
# Copyright (C) 1995-1998 Ti Kan
#
# Track frame offsets:
#       150
#       21882
#       40005
#       55195
#       70202
#       88337
#       104187
#       119902
#
# Disc length: 1861 seconds
#
# Revision: 0
# Processed by: cddbd v1.5.1PL0 Copyright (c) Steve Scherf et al.
# Submitted via: CD-Transfer v1.0
#
DISCID=76074308
DTITLE=Zorana - Lutka Od Slame
DYEAR=1900
DGENRE=
TTITLE0=Lutka Od Slame
TTITLE1=Moram Biti Tvoja
TTITLE2=Ja Nemam Snage
TTITLE3=Letim S Tobom
TTITLE4=Vrata Pakla
TTITLE5=Snaga Ljubavi
TTITLE6=Probudi Se
TTITLE7=Zdravo Marija
EXTD=
EXTT0=
EXTT1=
EXTT2=
EXTT3=
EXTT4=
EXTT5=
EXTT6=
EXTT7=
PLAYORDER=
